<?xml version="1.0" encoding="UTF-8"?>
<!--Generator: Apple Native CoreSVG 175-->
<!DOCTYPE svg
PUBLIC "-//W3C//DTD SVG 1.1//EN"
       "http://www.w3.org/Graphics/SVG/1.1/DTD/svg11.dtd">
<svg version="1.1" xmlns="http://www.w3.org/2000/svg" xmlns:xlink="http://www.w3.org/1999/xlink" width="3300" height="2200">
 <!--glyph: "uni10039E.medium", point size: 100.0, font version: "17.0d11e1", template writer version: "65.1"-->
 <g id="Notes">
  <rect height="2200" id="artboard" style="fill:white;opacity:1" width="3300" x="0" y="0"/>
  <line style="fill:none;stroke:black;opacity:1;stroke-width:0.5;" x1="263" x2="3036" y1="292" y2="292"/>
  <text style="stroke:none;fill:black;font-family:sans-serif;font-size:13;font-weight:bold;" transform="matrix(1 0 0 1 263 322)">Weight/Scale Variations</text>
  <text style="stroke:none;fill:black;font-family:sans-serif;font-size:13;text-anchor:middle;" transform="matrix(1 0 0 1 559.711 322)">Ultralight</text>
  <text style="stroke:none;fill:black;font-family:sans-serif;font-size:13;text-anchor:middle;" transform="matrix(1 0 0 1 856.422 322)">Thin</text>
  <text style="stroke:none;fill:black;font-family:sans-serif;font-size:13;text-anchor:middle;" transform="matrix(1 0 0 1 1153.13 322)">Light</text>
  <text style="stroke:none;fill:black;font-family:sans-serif;font-size:13;text-anchor:middle;" transform="matrix(1 0 0 1 1449.84 322)">Regular</text>
  <text style="stroke:none;fill:black;font-family:sans-serif;font-size:13;text-anchor:middle;" transform="matrix(1 0 0 1 1746.56 322)">Medium</text>
  <text style="stroke:none;fill:black;font-family:sans-serif;font-size:13;text-anchor:middle;" transform="matrix(1 0 0 1 2043.27 322)">Semibold</text>
  <text style="stroke:none;fill:black;font-family:sans-serif;font-size:13;text-anchor:middle;" transform="matrix(1 0 0 1 2339.98 322)">Bold</text>
  <text style="stroke:none;fill:black;font-family:sans-serif;font-size:13;text-anchor:middle;" transform="matrix(1 0 0 1 2636.69 322)">Heavy</text>
  <text style="stroke:none;fill:black;font-family:sans-serif;font-size:13;text-anchor:middle;" transform="matrix(1 0 0 1 2933.4 322)">Black</text>
  <line style="fill:none;stroke:black;opacity:1;stroke-width:0.5;" x1="263" x2="3036" y1="1903" y2="1903"/>
  <g transform="matrix(1 0 0 1 263 1933)">
   <path d="M9.24805 0.830078Q10.8691 0.830078 12.2949 0.214844Q13.7207-0.400391 14.8096-1.49414Q15.8984-2.58789 16.5186-4.01367Q17.1387-5.43945 17.1387-7.05078Q17.1387-8.66211 16.5186-10.0879Q15.8984-11.5137 14.8047-12.6074Q13.7109-13.7012 12.2852-14.3164Q10.8594-14.9316 9.23828-14.9316Q7.62695-14.9316 6.20117-14.3164Q4.77539-13.7012 3.69141-12.6074Q2.60742-11.5137 1.9873-10.0879Q1.36719-8.66211 1.36719-7.05078Q1.36719-5.43945 1.9873-4.01367Q2.60742-2.58789 3.69629-1.49414Q4.78516-0.400391 6.21094 0.214844Q7.63672 0.830078 9.24805 0.830078ZM9.24805-0.654297Q7.91992-0.654297 6.7627-1.14746Q5.60547-1.64062 4.73145-2.51953Q3.85742-3.39844 3.36426-4.56055Q2.87109-5.72266 2.87109-7.05078Q2.87109-8.37891 3.35938-9.54102Q3.84766-10.7031 4.72168-11.582Q5.5957-12.4609 6.75293-12.9541Q7.91016-13.4473 9.23828-13.4473Q10.5762-13.4473 11.7334-12.9541Q12.8906-12.4609 13.7695-11.582Q14.6484-10.7031 15.1465-9.54102Q15.6445-8.37891 15.6445-7.05078Q15.6445-5.72266 15.1514-4.56055Q14.6582-3.39844 13.7842-2.51953Q12.9102-1.64062 11.748-1.14746Q10.5859-0.654297 9.24805-0.654297ZM5.6543-7.05078Q5.6543-6.72852 5.85938-6.52832Q6.06445-6.32812 6.40625-6.32812L8.51562-6.32812L8.51562-4.20898Q8.51562-3.88672 8.71094-3.67676Q8.90625-3.4668 9.23828-3.4668Q9.56055-3.4668 9.77051-3.67676Q9.98047-3.88672 9.98047-4.20898L9.98047-6.32812L12.0898-6.32812Q12.4219-6.32812 12.627-6.52832Q12.832-6.72852 12.832-7.05078Q12.832-7.38281 12.627-7.58789Q12.4219-7.79297 12.0898-7.79297L9.98047-7.79297L9.98047-9.90234Q9.98047-10.2344 9.77051-10.4443Q9.56055-10.6543 9.23828-10.6543Q8.90625-10.6543 8.71094-10.4443Q8.51562-10.2344 8.51562-9.90234L8.51562-7.79297L6.40625-7.79297Q6.06445-7.79297 5.85938-7.58789Q5.6543-7.38281 5.6543-7.05078Z"/>
  </g>
  <g transform="matrix(1 0 0 1 281.867 1933)">
   <path d="M11.709 2.91016Q13.75 2.91016 15.5518 2.12891Q17.3535 1.34766 18.7305-0.0292969Q20.1074-1.40625 20.8887-3.20801Q21.6699-5.00977 21.6699-7.05078Q21.6699-9.0918 20.8887-10.8936Q20.1074-12.6953 18.7305-14.0723Q17.3535-15.4492 15.5469-16.2305Q13.7402-17.0117 11.6992-17.0117Q9.6582-17.0117 7.85645-16.2305Q6.05469-15.4492 4.68262-14.0723Q3.31055-12.6953 2.5293-10.8936Q1.74805-9.0918 1.74805-7.05078Q1.74805-5.00977 2.5293-3.20801Q3.31055-1.40625 4.6875-0.0292969Q6.06445 1.34766 7.86621 2.12891Q9.66797 2.91016 11.709 2.91016ZM11.709 1.25Q9.98047 1.25 8.47656 0.605469Q6.97266-0.0390625 5.83496-1.17676Q4.69727-2.31445 4.05762-3.81836Q3.41797-5.32227 3.41797-7.05078Q3.41797-8.7793 4.05762-10.2832Q4.69727-11.7871 5.83008-12.9297Q6.96289-14.0723 8.4668-14.7119Q9.9707-15.3516 11.6992-15.3516Q13.4277-15.3516 14.9316-14.7119Q16.4355-14.0723 17.5781-12.9297Q18.7207-11.7871 19.3652-10.2832Q20.0098-8.7793 20.0098-7.05078Q20.0098-5.32227 19.3701-3.81836Q18.7305-2.31445 17.5928-1.17676Q16.4551-0.0390625 14.9463 0.605469Q13.4375 1.25 11.709 1.25ZM7.17773-7.05078Q7.17773-6.69922 7.41211-6.47461Q7.64648-6.25 8.01758-6.25L10.8887-6.25L10.8887-3.36914Q10.8887-2.99805 11.1133-2.76855Q11.3379-2.53906 11.6895-2.53906Q12.0605-2.53906 12.29-2.76855Q12.5195-2.99805 12.5195-3.36914L12.5195-6.25L15.4004-6.25Q15.7715-6.25 16.001-6.47461Q16.2305-6.69922 16.2305-7.05078Q16.2305-7.42188 16.001-7.65137Q15.7715-7.88086 15.4004-7.88086L12.5195-7.88086L12.5195-10.752Q12.5195-11.1328 12.29-11.3623Q12.0605-11.5918 11.6895-11.5918Q11.3379-11.5918 11.1133-11.3574Q10.8887-11.123 10.8887-10.752L10.8887-7.88086L8.01758-7.88086Q7.63672-7.88086 7.40723-7.65137Q7.17773-7.42188 7.17773-7.05078Z"/>
  </g>
  <g transform="matrix(1 0 0 1 305.646 1933)">
   <path d="M14.9707 5.66406Q17.0605 5.66406 18.96 5.01465Q20.8594 4.36523 22.4512 3.19336Q24.043 2.02148 25.2197 0.429688Q26.3965-1.16211 27.0459-3.06641Q27.6953-4.9707 27.6953-7.05078Q27.6953-9.14062 27.0459-11.04Q26.3965-12.9395 25.2197-14.5312Q24.043-16.123 22.4512-17.2998Q20.8594-18.4766 18.9551-19.126Q17.0508-19.7754 14.9609-19.7754Q12.8711-19.7754 10.9717-19.126Q9.07227-18.4766 7.48535-17.2998Q5.89844-16.123 4.72168-14.5312Q3.54492-12.9395 2.90039-11.04Q2.25586-9.14062 2.25586-7.05078Q2.25586-4.9707 2.90527-3.06641Q3.55469-1.16211 4.72656 0.429688Q5.89844 2.02148 7.49023 3.19336Q9.08203 4.36523 10.9814 5.01465Q12.8809 5.66406 14.9707 5.66406ZM14.9707 3.84766Q13.1641 3.84766 11.5283 3.2959Q9.89258 2.74414 8.53516 1.74805Q7.17773 0.751953 6.17676-0.610352Q5.17578-1.97266 4.62891-3.6084Q4.08203-5.24414 4.08203-7.05078Q4.08203-8.86719 4.62891-10.5029Q5.17578-12.1387 6.17188-13.501Q7.16797-14.8633 8.52539-15.8594Q9.88281-16.8555 11.5186-17.4023Q13.1543-17.9492 14.9609-17.9492Q16.7773-17.9492 18.4131-17.4023Q20.0488-16.8555 21.4111-15.8594Q22.7734-14.8633 23.7695-13.501Q24.7656-12.1387 25.3174-10.5029Q25.8691-8.86719 25.8691-7.05078Q25.8789-5.24414 25.332-3.6084Q24.7852-1.97266 23.7842-0.610352Q22.7832 0.751953 21.4209 1.74805Q20.0586 2.74414 18.4229 3.2959Q16.7871 3.84766 14.9707 3.84766ZM9.19922-7.05078Q9.19922-6.66992 9.45801-6.4209Q9.7168-6.17188 10.1172-6.17188L14.0625-6.17188L14.0625-2.2168Q14.0625-1.81641 14.3115-1.55762Q14.5605-1.29883 14.9512-1.29883Q15.3516-1.29883 15.6104-1.55273Q15.8691-1.80664 15.8691-2.2168L15.8691-6.17188L19.8242-6.17188Q20.2246-6.17188 20.4785-6.4209Q20.7324-6.66992 20.7324-7.05078Q20.7324-7.46094 20.4785-7.71484Q20.2246-7.96875 19.8242-7.96875L15.8691-7.96875L15.8691-11.9141Q15.8691-12.3242 15.6104-12.583Q15.3516-12.8418 14.9512-12.8418Q14.5605-12.8418 14.3115-12.583Q14.0625-12.3242 14.0625-11.9141L14.0625-7.96875L10.1172-7.96875Q9.70703-7.96875 9.45312-7.71484Q9.19922-7.46094 9.19922-7.05078Z"/>
  </g>
  <text style="stroke:none;fill:black;font-family:sans-serif;font-size:13;font-weight:bold;" transform="matrix(1 0 0 1 263 1953)">Design Variations</text>
  <text style="stroke:none;fill:black;font-family:sans-serif;font-size:13;" transform="matrix(1 0 0 1 263 1971)">Symbols are supported in up to nine weights and three scales.</text>
  <text style="stroke:none;fill:black;font-family:sans-serif;font-size:13;" transform="matrix(1 0 0 1 263 1989)">For optimal layout with text and other symbols, vertically align</text>
  <text style="stroke:none;fill:black;font-family:sans-serif;font-size:13;" transform="matrix(1 0 0 1 263 2007)">symbols with the adjacent text.</text>
  <line style="fill:none;stroke:#00AEEF;stroke-width:0.5;opacity:1.0;" x1="776" x2="776" y1="1919" y2="1933"/>
  <g transform="matrix(1 0 0 1 776 1933)">
   <path d="M3.31055 0.15625Q3.70117 0.15625 3.91602-0.00976562Q4.13086-0.175781 4.26758-0.585938L5.52734-4.0332L11.2891-4.0332L12.5488-0.585938Q12.6855-0.175781 12.9004-0.00976562Q13.1152 0.15625 13.4961 0.15625Q13.8867 0.15625 14.1162-0.0585938Q14.3457-0.273438 14.3457-0.644531Q14.3457-0.869141 14.2383-1.17188L9.6582-13.3691Q9.48242-13.8184 9.17969-14.043Q8.87695-14.2676 8.4082-14.2676Q7.5-14.2676 7.17773-13.3789L2.59766-1.16211Q2.49023-0.859375 2.49023-0.634766Q2.49023-0.263672 2.70996-0.0537109Q2.92969 0.15625 3.31055 0.15625ZM6.00586-5.51758L8.37891-12.0898L8.42773-12.0898L10.8008-5.51758Z"/>
  </g>
  <line style="fill:none;stroke:#00AEEF;stroke-width:0.5;opacity:1.0;" x1="793.197" x2="793.197" y1="1919" y2="1933"/>
  <text style="stroke:none;fill:black;font-family:sans-serif;font-size:13;font-weight:bold;" transform="matrix(1 0 0 1 776 1953)">Margins</text>
  <text style="stroke:none;fill:black;font-family:sans-serif;font-size:13;" transform="matrix(1 0 0 1 776 1971)">Leading and trailing margins on the left and right side of each symbol</text>
  <text style="stroke:none;fill:black;font-family:sans-serif;font-size:13;" transform="matrix(1 0 0 1 776 1989)">can be adjusted by modifying the x-location of the margin guidelines.</text>
  <text style="stroke:none;fill:black;font-family:sans-serif;font-size:13;" transform="matrix(1 0 0 1 776 2007)">Modifications are automatically applied proportionally to all</text>
  <text style="stroke:none;fill:black;font-family:sans-serif;font-size:13;" transform="matrix(1 0 0 1 776 2025)">scales and weights.</text>
  <g transform="matrix(1 0 0 1 1289 1933)">
   <path d="M2.8418 1.86523L4.54102 3.57422Q5.18555 4.22852 5.90332 4.17969Q6.62109 4.13086 7.31445 3.35938L18.0078-8.42773L17.041-9.4043L6.42578 2.27539Q6.16211 2.57812 5.89355 2.61719Q5.625 2.65625 5.27344 2.30469L4.10156 1.14258Q3.75 0.791016 3.79395 0.522461Q3.83789 0.253906 4.14062-0.0195312L15.6152-10.8203L14.6387-11.7871L3.04688-0.898438Q2.30469-0.214844 2.25098 0.498047Q2.19727 1.21094 2.8418 1.86523ZM9.25781-16.3281Q8.94531-16.0254 8.90625-15.6348Q8.86719-15.2441 9.04297-14.9512Q9.21875-14.6777 9.55566-14.541Q9.89258-14.4043 10.3809-14.5215Q11.4746-14.7754 12.5977-14.7314Q13.7207-14.6875 14.7949-13.9844L14.209-12.5293Q13.9551-11.9043 14.0674-11.4404Q14.1797-10.9766 14.5801-10.5664L16.875-8.25195Q17.2363-7.88086 17.5781-7.82227Q17.9199-7.76367 18.3398-7.8418L19.4043-8.03711L20.0684-7.36328L20.0293-6.80664Q20-6.43555 20.1221-6.12305Q20.2441-5.81055 20.6055-5.44922L21.3672-4.70703Q21.7285-4.3457 22.1533-4.33105Q22.5781-4.31641 22.9297-4.66797L25.8398-7.58789Q26.1914-7.93945 26.1816-8.35449Q26.1719-8.76953 25.8105-9.13086L25.0391-9.89258Q24.6875-10.2539 24.3799-10.3857Q24.0723-10.5176 23.7109-10.4883L23.1348-10.4395L22.4902-11.0742L22.7344-12.1973Q22.832-12.6172 22.6953-12.9834Q22.5586-13.3496 22.1191-13.7891L19.9219-15.9766Q18.6719-17.2168 17.2607-17.8369Q15.8496-18.457 14.4189-18.4814Q12.9883-18.5059 11.665-17.959Q10.3418-17.4121 9.25781-16.3281ZM10.752-15.957Q11.6602-16.6211 12.7002-16.9043Q13.7402-17.1875 14.8047-17.085Q15.8691-16.9824 16.8701-16.5137Q17.8711-16.0449 18.7012-15.2051L21.1328-12.793Q21.3086-12.6172 21.3525-12.4512Q21.3965-12.2852 21.3379-12.0312L21.0156-10.5469L22.5195-9.0625L23.5059-9.12109Q23.6914-9.13086 23.7891-9.09668Q23.8867-9.0625 24.0332-8.91602L24.6094-8.33984L22.168-5.89844L21.5918-6.47461Q21.4453-6.62109 21.4062-6.71875Q21.3672-6.81641 21.377-7.01172L21.4453-7.98828L19.9512-9.47266L18.4277-9.21875Q18.1836-9.16992 18.042-9.2041Q17.9004-9.23828 17.7148-9.41406L15.7129-11.416Q15.5176-11.5918 15.4932-11.7529Q15.4688-11.9141 15.5859-12.1875L16.4648-14.2773Q15.293-15.3711 13.8281-15.791Q12.3633-16.2109 10.8398-15.7617Q10.7227-15.7324 10.6885-15.8057Q10.6543-15.8789 10.752-15.957Z"/>
  </g>
  <text style="stroke:none;fill:black;font-family:sans-serif;font-size:13;font-weight:bold;" transform="matrix(1 0 0 1 1289 1953)">Exporting</text>
  <text style="stroke:none;fill:black;font-family:sans-serif;font-size:13;" transform="matrix(1 0 0 1 1289 1971)">Symbols should be outlined when exporting to ensure the</text>
  <text style="stroke:none;fill:black;font-family:sans-serif;font-size:13;" transform="matrix(1 0 0 1 1289 1989)">design is preserved when submitting to Xcode.</text>
  <text id="template-version" style="stroke:none;fill:black;font-family:sans-serif;font-size:13;text-anchor:end;" transform="matrix(1 0 0 1 3036 1933)">Template v.3.0</text>
  <text style="stroke:none;fill:black;font-family:sans-serif;font-size:13;text-anchor:end;" transform="matrix(1 0 0 1 3036 1951)">Requires Xcode 13 or greater</text>
  <text id="descriptive-name" style="stroke:none;fill:black;font-family:sans-serif;font-size:13;text-anchor:end;" transform="matrix(1 0 0 1 3036 1969)">Generated from house</text>
  <text style="stroke:none;fill:black;font-family:sans-serif;font-size:13;text-anchor:end;" transform="matrix(1 0 0 1 3036 1987)">Typeset at 100 points</text>
  <text style="stroke:none;fill:black;font-family:sans-serif;font-size:13;" transform="matrix(1 0 0 1 263 726)">Small</text>
  <text style="stroke:none;fill:black;font-family:sans-serif;font-size:13;" transform="matrix(1 0 0 1 263 1156)">Medium</text>
  <text style="stroke:none;fill:black;font-family:sans-serif;font-size:13;" transform="matrix(1 0 0 1 263 1586)">Large</text>
 </g>
 <g id="Guides">
  <g id="H-reference" style="fill:#27AAE1;stroke:none;" transform="matrix(1 0 0 1 339 696)">
   <path d="M0.993347 0L3.6377 0L29.3282-67.1326L30.0301-67.1326L30.0301-70.459L28.1227-70.459ZM11.6882-24.4797L46.9818-24.4797L46.2311-26.7288L12.4382-26.7288ZM55.1193 0L57.7637 0L30.6381-70.459L29.4327-70.459L29.4327-67.1326Z"/>
  </g>
  <line id="Baseline-S" style="fill:none;stroke:#27AAE1;opacity:1;stroke-width:0.5;" x1="263" x2="3036" y1="696" y2="696"/>
  <line id="Capline-S" style="fill:none;stroke:#27AAE1;opacity:1;stroke-width:0.5;" x1="263" x2="3036" y1="625.541" y2="625.541"/>
  <g id="H-reference" style="fill:#27AAE1;stroke:none;" transform="matrix(1 0 0 1 339 1126)">
   <path d="M0.993347 0L3.6377 0L29.3282-67.1326L30.0301-67.1326L30.0301-70.459L28.1227-70.459ZM11.6882-24.4797L46.9818-24.4797L46.2311-26.7288L12.4382-26.7288ZM55.1193 0L57.7637 0L30.6381-70.459L29.4327-70.459L29.4327-67.1326Z"/>
  </g>
  <line id="Baseline-M" style="fill:none;stroke:#27AAE1;opacity:1;stroke-width:0.5;" x1="263" x2="3036" y1="1126" y2="1126"/>
  <line id="Capline-M" style="fill:none;stroke:#27AAE1;opacity:1;stroke-width:0.5;" x1="263" x2="3036" y1="1055.54" y2="1055.54"/>
  <g id="H-reference" style="fill:#27AAE1;stroke:none;" transform="matrix(1 0 0 1 339 1556)">
   <path d="M0.993347 0L3.6377 0L29.3282-67.1326L30.0301-67.1326L30.0301-70.459L28.1227-70.459ZM11.6882-24.4797L46.9818-24.4797L46.2311-26.7288L12.4382-26.7288ZM55.1193 0L57.7637 0L30.6381-70.459L29.4327-70.459L29.4327-67.1326Z"/>
  </g>
  <line id="Baseline-L" style="fill:none;stroke:#27AAE1;opacity:1;stroke-width:0.5;" x1="263" x2="3036" y1="1556" y2="1556"/>
  <line id="Capline-L" style="fill:none;stroke:#27AAE1;opacity:1;stroke-width:0.5;" x1="263" x2="3036" y1="1485.54" y2="1485.54"/>
  <line id="left-margin-Ultralight-S" style="fill:none;stroke:#00AEEF;stroke-width:0.5;opacity:1.0;" x1="508.561" x2="508.561" y1="600.785" y2="720.121"/>
  <line id="right-margin-Ultralight-S" style="fill:none;stroke:#00AEEF;stroke-width:0.5;opacity:1.0;" x1="610.861" x2="610.861" y1="600.785" y2="720.121"/>
  <line id="left-margin-Thin-S" style="fill:none;stroke:#00AEEF;stroke-width:0.5;opacity:1.0;" x1="804.093" x2="804.093" y1="600.785" y2="720.121"/>
  <line id="right-margin-Thin-S" style="fill:none;stroke:#00AEEF;stroke-width:0.5;opacity:1.0;" x1="908.751" x2="908.751" y1="600.785" y2="720.121"/>
  <line id="left-margin-Light-S" style="fill:none;stroke:#00AEEF;stroke-width:0.5;opacity:1.0;" x1="1098.5" x2="1098.5" y1="600.785" y2="720.121"/>
  <line id="right-margin-Light-S" style="fill:none;stroke:#00AEEF;stroke-width:0.5;opacity:1.0;" x1="1207.76" x2="1207.76" y1="600.785" y2="720.121"/>
  <line id="left-margin-Regular-S" style="fill:none;stroke:#00AEEF;stroke-width:0.5;opacity:1.0;" x1="1393.47" x2="1393.47" y1="600.785" y2="720.121"/>
  <line id="right-margin-Regular-S" style="fill:none;stroke:#00AEEF;stroke-width:0.5;opacity:1.0;" x1="1506.22" x2="1506.22" y1="600.785" y2="720.121"/>
  <line id="left-margin-Medium-S" style="fill:none;stroke:#00AEEF;stroke-width:0.5;opacity:1.0;" x1="1689.26" x2="1689.26" y1="600.785" y2="720.121"/>
  <line id="right-margin-Medium-S" style="fill:none;stroke:#00AEEF;stroke-width:0.5;opacity:1.0;" x1="1803.85" x2="1803.85" y1="600.785" y2="720.121"/>
  <line id="left-margin-Semibold-S" style="fill:none;stroke:#00AEEF;stroke-width:0.5;opacity:1.0;" x1="1985.26" x2="1985.26" y1="600.785" y2="720.121"/>
  <line id="right-margin-Semibold-S" style="fill:none;stroke:#00AEEF;stroke-width:0.5;opacity:1.0;" x1="2101.28" x2="2101.28" y1="600.785" y2="720.121"/>
  <line id="left-margin-Bold-S" style="fill:none;stroke:#00AEEF;stroke-width:0.5;opacity:1.0;" x1="2281.03" x2="2281.03" y1="600.785" y2="720.121"/>
  <line id="right-margin-Bold-S" style="fill:none;stroke:#00AEEF;stroke-width:0.5;opacity:1.0;" x1="2398.93" x2="2398.93" y1="600.785" y2="720.121"/>
  <line id="left-margin-Heavy-S" style="fill:none;stroke:#00AEEF;stroke-width:0.5;opacity:1.0;" x1="2576.38" x2="2576.38" y1="600.785" y2="720.121"/>
  <line id="right-margin-Heavy-S" style="fill:none;stroke:#00AEEF;stroke-width:0.5;opacity:1.0;" x1="2697" x2="2697" y1="600.785" y2="720.121"/>
  <line id="left-margin-Black-S" style="fill:none;stroke:#00AEEF;stroke-width:0.5;opacity:1.0;" x1="2871.88" x2="2871.88" y1="600.785" y2="720.121"/>
  <line id="right-margin-Black-S" style="fill:none;stroke:#00AEEF;stroke-width:0.5;opacity:1.0;" x1="2994.92" x2="2994.92" y1="600.785" y2="720.121"/>
  <line id="left-margin-Ultralight-M" style="fill:none;stroke:#00AEEF;stroke-width:0.5;opacity:1.0;" x1="494.887" x2="494.887" y1="1030.79" y2="1150.12"/>
  <line id="right-margin-Ultralight-M" style="fill:none;stroke:#00AEEF;stroke-width:0.5;opacity:1.0;" x1="624.535" x2="624.535" y1="1030.79" y2="1150.12"/>
  <line id="left-margin-Thin-M" style="fill:none;stroke:#00AEEF;stroke-width:0.5;opacity:1.0;" x1="790.265" x2="790.265" y1="1030.79" y2="1150.12"/>
  <line id="right-margin-Thin-M" style="fill:none;stroke:#00AEEF;stroke-width:0.5;opacity:1.0;" x1="922.58" x2="922.58" y1="1030.79" y2="1150.12"/>
  <line id="left-margin-Light-M" style="fill:none;stroke:#00AEEF;stroke-width:0.5;opacity:1.0;" x1="1084.37" x2="1084.37" y1="1030.79" y2="1150.12"/>
  <line id="right-margin-Light-M" style="fill:none;stroke:#00AEEF;stroke-width:0.5;opacity:1.0;" x1="1221.89" x2="1221.89" y1="1030.79" y2="1150.12"/>
  <line id="left-margin-Regular-M" style="fill:none;stroke:#00AEEF;stroke-width:0.5;opacity:1.0;" x1="1379.12" x2="1379.12" y1="1030.79" y2="1150.12"/>
  <line id="right-margin-Regular-M" style="fill:none;stroke:#00AEEF;stroke-width:0.5;opacity:1.0;" x1="1520.57" x2="1520.57" y1="1030.79" y2="1150.12"/>
  <line id="left-margin-Medium-M" style="fill:none;stroke:#00AEEF;stroke-width:0.5;opacity:1.0;" x1="1674.52" x2="1674.52" y1="1030.79" y2="1150.12"/>
  <line id="right-margin-Medium-M" style="fill:none;stroke:#00AEEF;stroke-width:0.5;opacity:1.0;" x1="1818.59" x2="1818.59" y1="1030.79" y2="1150.12"/>
  <line id="left-margin-Semibold-M" style="fill:none;stroke:#00AEEF;stroke-width:0.5;opacity:1.0;" x1="1970.23" x2="1970.23" y1="1030.79" y2="1150.12"/>
  <line id="right-margin-Semibold-M" style="fill:none;stroke:#00AEEF;stroke-width:0.5;opacity:1.0;" x1="2116.31" x2="2116.31" y1="1030.79" y2="1150.12"/>
  <line id="left-margin-Bold-M" style="fill:none;stroke:#00AEEF;stroke-width:0.5;opacity:1.0;" x1="2265.61" x2="2265.61" y1="1030.79" y2="1150.12"/>
  <line id="right-margin-Bold-M" style="fill:none;stroke:#00AEEF;stroke-width:0.5;opacity:1.0;" x1="2414.34" x2="2414.34" y1="1030.79" y2="1150.12"/>
  <line id="left-margin-Heavy-M" style="fill:none;stroke:#00AEEF;stroke-width:0.5;opacity:1.0;" x1="2560.4" x2="2560.4" y1="1030.79" y2="1150.12"/>
  <line id="right-margin-Heavy-M" style="fill:none;stroke:#00AEEF;stroke-width:0.5;opacity:1.0;" x1="2712.97" x2="2712.97" y1="1030.79" y2="1150.12"/>
  <line id="left-margin-Black-M" style="fill:none;stroke:#00AEEF;stroke-width:0.5;opacity:1.0;" x1="2855.4" x2="2855.4" y1="1030.79" y2="1150.12"/>
  <line id="right-margin-Black-M" style="fill:none;stroke:#00AEEF;stroke-width:0.5;opacity:1.0;" x1="3011.4" x2="3011.4" y1="1030.79" y2="1150.12"/>
  <line id="left-margin-Ultralight-L" style="fill:none;stroke:#00AEEF;stroke-width:0.5;opacity:1.0;" x1="476.647" x2="476.647" y1="1460.79" y2="1580.12"/>
  <line id="right-margin-Ultralight-L" style="fill:none;stroke:#00AEEF;stroke-width:0.5;opacity:1.0;" x1="642.775" x2="642.775" y1="1460.79" y2="1580.12"/>
  <line id="left-margin-Thin-L" style="fill:none;stroke:#00AEEF;stroke-width:0.5;opacity:1.0;" x1="771.871" x2="771.871" y1="1460.79" y2="1580.12"/>
  <line id="right-margin-Thin-L" style="fill:none;stroke:#00AEEF;stroke-width:0.5;opacity:1.0;" x1="940.973" x2="940.973" y1="1460.79" y2="1580.12"/>
  <line id="left-margin-Light-L" style="fill:none;stroke:#00AEEF;stroke-width:0.5;opacity:1.0;" x1="1065.68" x2="1065.68" y1="1460.79" y2="1580.12"/>
  <line id="right-margin-Light-L" style="fill:none;stroke:#00AEEF;stroke-width:0.5;opacity:1.0;" x1="1240.59" x2="1240.59" y1="1460.79" y2="1580.12"/>
  <line id="left-margin-Regular-L" style="fill:none;stroke:#00AEEF;stroke-width:0.5;opacity:1.0;" x1="1360.2" x2="1360.2" y1="1460.79" y2="1580.12"/>
  <line id="right-margin-Regular-L" style="fill:none;stroke:#00AEEF;stroke-width:0.5;opacity:1.0;" x1="1539.49" x2="1539.49" y1="1460.79" y2="1580.12"/>
  <line id="left-margin-Medium-L" style="fill:none;stroke:#00AEEF;stroke-width:0.5;opacity:1.0;" x1="1655.2" x2="1655.2" y1="1460.79" y2="1580.12"/>
  <line id="right-margin-Medium-L" style="fill:none;stroke:#00AEEF;stroke-width:0.5;opacity:1.0;" x1="1837.91" x2="1837.91" y1="1460.79" y2="1580.12"/>
  <line id="left-margin-Semibold-L" style="fill:none;stroke:#00AEEF;stroke-width:0.5;opacity:1.0;" x1="1950.61" x2="1950.61" y1="1460.79" y2="1580.12"/>
  <line id="right-margin-Semibold-L" style="fill:none;stroke:#00AEEF;stroke-width:0.5;opacity:1.0;" x1="2135.93" x2="2135.93" y1="1460.79" y2="1580.12"/>
  <line id="left-margin-Bold-L" style="fill:none;stroke:#00AEEF;stroke-width:0.5;opacity:1.0;" x1="2245.59" x2="2245.59" y1="1460.79" y2="1580.12"/>
  <line id="right-margin-Bold-L" style="fill:none;stroke:#00AEEF;stroke-width:0.5;opacity:1.0;" x1="2434.36" x2="2434.36" y1="1460.79" y2="1580.12"/>
  <line id="left-margin-Heavy-L" style="fill:none;stroke:#00AEEF;stroke-width:0.5;opacity:1.0;" x1="2539.8" x2="2539.8" y1="1460.79" y2="1580.12"/>
  <line id="right-margin-Heavy-L" style="fill:none;stroke:#00AEEF;stroke-width:0.5;opacity:1.0;" x1="2733.57" x2="2733.57" y1="1460.79" y2="1580.12"/>
  <line id="left-margin-Black-L" style="fill:none;stroke:#00AEEF;stroke-width:0.5;opacity:1.0;" x1="2834.28" x2="2834.28" y1="1460.79" y2="1580.12"/>
  <line id="right-margin-Black-L" style="fill:none;stroke:#00AEEF;stroke-width:0.5;opacity:1.0;" x1="3032.52" x2="3032.52" y1="1460.79" y2="1580.12"/>
 </g>
 <g id="Symbols">
  <g id="Black-L" transform="matrix(1 0 0 1 2834.28 1556)">
   <path d="M81.1035 16.6504L117.139 16.6504L117.139-27.4902Q117.139-29.834 115.747-31.2256Q114.355-32.6172 112.012-32.6172L86.3281-32.6172Q83.9844-32.6172 82.5439-31.2256Q81.1035-29.834 81.1035-27.4902ZM56.3965 30.957L141.699 30.957Q150.439 30.957 155.396 26.123Q160.352 21.2891 160.352 13.0371L160.352-57.4219L140.088-71.3379L140.088 5.17578Q140.088 7.76367 138.647 9.22852Q137.207 10.6934 134.57 10.6934L63.5254 10.6934Q60.8887 10.6934 59.4482 9.22852Q58.0078 7.76367 58.0078 5.17578L58.0078-71.3379L37.7441-57.4219L37.7441 13.0371Q37.7441 21.2891 42.7002 26.123Q47.6562 30.957 56.3965 30.957ZM16.0645-43.6523Q16.0645-39.4043 18.8232-36.7188Q21.582-34.0332 26.2207-34.0332Q28.2227-34.0332 30.249-34.9121Q32.2754-35.791 34.0332-37.3047L95.0195-88.4277Q97.0215-90.1367 99.1699-90.1123Q101.318-90.0879 103.369-88.4277L164.258-37.3047Q166.016-35.791 168.042-34.9121Q170.068-34.0332 172.07-34.0332Q176.562-34.0332 179.37-36.6211Q182.178-39.209 182.178-43.5547Q182.178-48.3887 178.125-51.8066L112.402-107.031Q106.445-112.012 99.1943-112.012Q91.9434-112.012 86.0352-107.031L20.166-51.709Q18.2129-50.0977 17.1387-47.9492Q16.0645-45.8008 16.0645-43.6523ZM135.352-81.8359L160.352-61.0352L160.352-95.8984Q160.352-98.2422 158.936-99.6582Q157.52-101.074 155.176-101.074L140.625-101.074Q138.232-101.074 136.792-99.6582Q135.352-98.2422 135.352-95.8984Z"/>
  </g>
  <g id="Heavy-L" transform="matrix(1 0 0 1 2539.8 1556)">
   <path d="M78.8795 17.4225L114.88 17.4225L114.88-27.2484Q114.88-29.5227 113.528-30.8739Q112.177-32.225 109.903-32.225L83.9424-32.225Q81.6681-32.225 80.2738-30.8739Q78.8795-29.5227 78.8795-27.2484ZM54.184 29.6318L139.417 29.6318Q147.616 29.6318 152.232 25.1205Q156.848 20.6093 156.848 12.8067L156.848-57.4219L139.327-69.4595L139.327 6.30493Q139.327 9.06601 137.829 10.5885Q136.331 12.1109 133.533 12.1109L60.0563 12.1109Q57.2701 12.1109 55.772 10.5885Q54.274 9.06601 54.274 6.30493L54.274-69.4481L36.7531-57.4219L36.7531 12.8067Q36.7531 20.6093 41.3692 25.1205Q45.9854 29.6318 54.184 29.6318ZM16.0645-43.8942Q16.0645-40.2573 18.4601-37.9002Q20.8557-35.5431 24.9184-35.5431Q26.7128-35.5431 28.474-36.3354Q30.2353-37.1277 31.7741-38.4453L93.2098-89.949Q95.005-91.4848 96.9402-91.478Q98.8754-91.4711 100.719-89.949L162.045-38.4453Q163.584-37.1277 165.351-36.3354Q167.118-35.5431 168.913-35.5431Q172.794-35.5431 175.25-37.7792Q177.706-40.0154 177.706-43.7851Q177.706-48.0087 174.207-50.9651L108.726-106.006Q103.403-110.468 96.97-110.468Q90.5373-110.468 85.2402-106.006L19.6129-50.8911Q17.9016-49.4865 16.983-47.6265Q16.0645-45.7664 16.0645-43.8942ZM134.361-79.2778L156.848-60.5164L156.848-94.0086Q156.848-96.2372 155.507-97.5723Q154.166-98.9075 151.937-98.9075L139.357-98.9075Q137.103-98.9075 135.732-97.5723Q134.361-96.2372 134.361-94.0086Z"/>
  </g>
  <g id="Bold-L" transform="matrix(1 0 0 1 2245.59 1556)">
   <path d="M76.3916 18.2861L112.354 18.2861L112.354-26.9775Q112.354-29.1748 111.047-30.481Q109.741-31.7871 107.544-31.7871L81.2744-31.7871Q79.0771-31.7871 77.7344-30.481Q76.3916-29.1748 76.3916-26.9775ZM51.709 28.1494L136.865 28.1494Q144.458 28.1494 148.694 23.999Q152.93 19.8486 152.93 12.5488L152.93-57.4219L138.477-67.3584L138.477 7.56836Q138.477 10.5225 136.914 12.1094Q135.352 13.6963 132.373 13.6963L56.1768 13.6963Q53.2227 13.6963 51.6602 12.1094Q50.0977 10.5225 50.0977 7.56836L50.0977-67.334L35.6445-57.4219L35.6445 12.5488Q35.6445 19.8486 39.8804 23.999Q44.1162 28.1494 51.709 28.1494ZM16.0645-44.165Q16.0645-41.2109 18.0542-39.2212Q20.0439-37.2314 23.4619-37.2314Q25.0244-37.2314 26.4893-37.9272Q27.9541-38.623 29.248-39.7217L91.1865-91.6504Q92.749-92.9932 94.4458-93.0054Q96.1426-93.0176 97.7539-91.6504L159.57-39.7217Q160.864-38.623 162.341-37.9272Q163.818-37.2314 165.381-37.2314Q168.579-37.2314 170.642-39.0747Q172.705-40.918 172.705-44.043Q172.705-47.583 169.824-50.0244L104.614-104.858Q100-108.74 94.4824-108.74Q88.9648-108.74 84.3506-104.858L18.9941-49.9756Q17.5537-48.8037 16.8091-47.2656Q16.0645-45.7275 16.0645-44.165ZM133.252-76.416L152.93-59.9365L152.93-91.8945Q152.93-93.9941 151.672-95.2393Q150.415-96.4844 148.315-96.4844L137.939-96.4844Q135.84-96.4844 134.546-95.2393Q133.252-93.9941 133.252-91.8945Z"/>
  </g>
  <g id="Semibold-L" transform="matrix(1 0 0 1 1950.61 1556)">
   <path d="M74.6765 18.8812L110.612 18.8812L110.612-26.7906Q110.612-28.9345 109.336-30.2097Q108.061-31.485 105.917-31.485L79.435-31.485Q77.2911-31.485 75.9838-30.2097Q74.6765-28.9345 74.6765-26.7906ZM50.0031 27.1271L135.106 27.1271Q142.281 27.1271 146.254 23.2258Q150.228 19.3245 150.228 12.3711L150.228-57.4219L137.89-65.9096L137.89 8.43964Q137.89 11.5265 136.283 13.158Q134.676 14.7896 131.573 14.7896L53.5019 14.7896Q50.4318 14.7896 48.8251 13.158Q47.2183 11.5265 47.2183 8.43964L47.2183-65.8768L34.8801-57.4219L34.8801 12.3711Q34.8801 19.3245 38.8538 23.2258Q42.8276 27.1271 50.0031 27.1271ZM16.0645-44.352Q16.0645-41.8686 17.7742-40.1321Q19.4839-38.3957 22.4579-38.3957Q23.8602-38.3957 25.1205-39.0247Q26.3809-39.6538 27.5063-40.6013L89.7911-92.8238Q91.1942-94.0331 92.7265-94.0586Q94.2589-94.0842 95.71-92.8238L157.864-40.6013Q158.989-39.6538 160.266-39.0247Q161.543-38.3957 162.946-38.3957Q165.673-38.3957 167.465-39.9677Q169.257-41.5398 169.257-44.2207Q169.257-47.29 166.803-49.3759L101.779-104.067Q97.654-107.549 92.7673-107.549Q87.8807-107.549 83.7372-104.067L18.5677-49.3446Q17.3134-48.333 16.6889-47.0169Q16.0645-45.7008 16.0645-44.352ZM132.487-74.4431L150.228-59.5367L150.228-90.4373Q150.228-92.4477 149.028-93.6306Q147.829-94.8135 145.818-94.8135L136.962-94.8135Q134.969-94.8135 133.728-93.6306Q132.487-92.4477 132.487-90.4373Z"/>
  </g>
  <g id="Medium-L" transform="matrix(1 0 0 1 1655.2 1556)">
   <path d="M73.3757 19.3329L109.291 19.3329L109.291-26.6495Q109.291-28.7529 108.039-30.0045Q106.788-31.2561 104.684-31.2561L78.0403-31.2561Q75.9361-31.2561 74.6559-30.0045Q73.3757-28.7529 73.3757-26.6495ZM48.7091 26.3527L133.772 26.3527Q140.63 26.3527 144.405 22.6398Q148.18 18.927 148.18 12.236L148.18-57.4219L137.445-64.8117L137.445 9.09958Q137.445 12.2879 135.804 13.953Q134.164 15.6181 130.967 15.6181L51.4732 15.6181Q48.3162 15.6181 46.6755 13.953Q45.0348 12.2879 45.0348 9.09958L45.0348-64.7713L34.301-57.4219L34.301 12.236Q34.301 18.927 38.0756 22.6398Q41.8503 26.3527 48.7091 26.3527ZM16.0645-44.4931Q16.0645-42.3676 17.5621-40.823Q19.0598-39.2784 21.6965-39.2784Q22.9774-39.2784 24.0829-39.8571Q25.1884-40.4358 26.1856-41.2689L88.7337-93.7126Q90.0146-94.8212 91.4223-94.857Q92.8299-94.8929 94.1597-93.7126L156.57-41.2689Q157.568-40.4358 158.693-39.8571Q159.818-39.2784 161.099-39.2784Q163.47-39.2784 165.056-40.6452Q166.643-42.012 166.643-44.3558Q166.643-47.0673 164.512-48.8838L99.63-103.468Q95.8748-106.647 91.4665-106.647Q87.0583-106.647 83.2726-103.468L18.2442-48.8663Q17.1318-47.9759 16.5981-46.8285Q16.0645-45.681 16.0645-44.4931ZM131.908-72.9469L148.18-59.2331L148.18-89.3318Q148.18-91.275 147.024-92.411Q145.868-93.5471 143.925-93.5471L136.221-93.5471Q134.309-93.5471 133.109-92.411Q131.908-91.275 131.908-89.3318Z"/>
  </g>
  <g id="Regular-L" transform="matrix(1 0 0 1 1360.2 1556)">
   <path d="M71.6797 19.9219L107.568 19.9219L107.568-26.4648Q107.568-28.5156 106.348-29.7363Q105.127-30.957 103.076-30.957L76.2207-30.957Q74.1699-30.957 72.9248-29.7363Q71.6797-28.5156 71.6797-26.4648ZM47.0215 25.3418L132.031 25.3418Q138.477 25.3418 141.992 21.875Q145.508 18.4082 145.508 12.0605L145.508-57.4219L136.865-63.3789L136.865 9.96094Q136.865 13.2812 135.181 14.9902Q133.496 16.6992 130.176 16.6992L48.8281 16.6992Q45.5566 16.6992 43.8721 14.9902Q42.1875 13.2812 42.1875 9.96094L42.1875-63.3301L33.5449-57.4219L33.5449 12.0605Q33.5449 18.4082 37.0605 21.875Q40.5762 25.3418 47.0215 25.3418ZM16.0645-44.6777Q16.0645-43.0176 17.2852-41.7236Q18.5059-40.4297 20.7031-40.4297Q21.8262-40.4297 22.7295-40.9424Q23.6328-41.4551 24.4629-42.1387L87.3535-94.873Q88.4766-95.8496 89.7217-95.8984Q90.9668-95.9473 92.1387-94.873L154.883-42.1387Q155.713-41.4551 156.641-40.9424Q157.568-40.4297 158.691-40.4297Q160.596-40.4297 161.914-41.5283Q163.232-42.627 163.232-44.5312Q163.232-46.7773 161.523-48.2422L96.8262-102.686Q93.5547-105.469 89.7705-105.469Q85.9863-105.469 82.666-102.686L17.8223-48.2422Q16.8945-47.5098 16.4795-46.582Q16.0645-45.6543 16.0645-44.6777ZM131.152-70.9961L145.508-58.8379L145.508-87.8906Q145.508-89.7461 144.409-90.8203Q143.311-91.8945 141.455-91.8945L135.254-91.8945Q133.447-91.8945 132.3-90.8203Q131.152-89.7461 131.152-87.8906Z"/>
  </g>
  <g id="Light-L" transform="matrix(1 0 0 1 1065.68 1556)">
   <path d="M69.8029 20.9969L105.07 20.9969L105.07-26.1169Q105.07-27.9861 103.956-29.1008Q102.841-30.2155 100.972-30.2155L73.9349-30.2155Q72.0657-30.2155 70.9343-29.1008Q69.8029-27.9861 69.8029-26.1169ZM45.0989 24.9939L129.776 24.9939Q135.812 24.9939 139.04 21.7842Q142.268 18.5745 142.268 12.6205L142.268-56.6803L135.654-61.4113L135.654 11.0657Q135.654 14.7644 133.864 16.5718Q132.073 18.3792 128.374 18.3792L46.4668 18.3792Q42.8017 18.3792 41.011 16.5718Q39.2204 14.7644 39.2204 11.0657L39.2204-61.3167L32.6065-56.6803L32.6065 12.6205Q32.6065 18.5898 35.8345 21.7918Q39.0625 24.9939 45.0989 24.9939ZM16.0645-44.9196Q16.0645-43.6531 16.9899-42.6846Q17.9153-41.716 19.5679-41.716Q20.4338-41.716 21.0873-42.0849Q21.7407-42.4538 22.374-42.971L84.9617-95.4636Q86.1908-96.5309 87.5042-96.6099Q88.8176-96.6888 90.1863-95.4636L152.567-42.971Q153.201-42.4538 153.871-42.0849Q154.541-41.716 155.392-41.716Q156.857-41.716 157.85-42.5652Q158.842-43.4143 158.842-44.8341Q158.842-46.55 157.436-47.7425L93.9651-101.202Q90.9813-103.758 87.606-103.758Q84.2308-103.758 81.1829-101.202L17.4896-47.7425Q16.7282-47.1313 16.3963-46.423Q16.0645-45.7146 16.0645-44.9196ZM129.972-68.3167L142.268-57.8995L142.268-86.8011Q142.268-88.3385 141.344-89.2387Q140.42-90.139 138.897-90.139L133.392-90.139Q131.889-90.139 130.93-89.2387Q129.972-88.3385 129.972-86.8011Z"/>
  </g>
  <g id="Thin-L" transform="matrix(1 0 0 1 771.871 1556)">
   <path d="M67.3203 22.4182L101.768 22.4182L101.768-25.6561Q101.768-27.285 100.793-28.2597Q99.8184-29.2343 98.1895-29.2343L70.9122-29.2343Q69.2833-29.2343 68.3018-28.2597Q67.3203-27.285 67.3203-25.6561ZM42.5568 24.5331L126.793 24.5331Q132.289 24.5331 135.137 21.664Q137.984 18.795 137.984 13.3614L137.984-55.6992L134.053-58.8089L134.053 12.5275Q134.053 16.7267 132.122 18.6642Q130.192 20.6017 125.993 20.6017L43.3441 20.6017Q39.1586 20.6017 37.228 18.6642Q35.2974 16.7267 35.2974 12.5275L35.2974-58.6548L31.3652-55.6992L31.3652 13.3614Q31.3652 18.8301 34.2129 21.6816Q37.0605 24.5331 42.5568 24.5331ZM16.0645-45.24Q16.0645-44.4939 16.5997-43.956Q17.1349-43.4181 18.0664-43.4181Q18.5921-43.4181 18.9152-43.5966Q19.2383-43.7752 19.6114-44.072L81.7993-96.244Q83.168-97.4319 84.5715-97.551Q85.9749-97.67 87.6038-96.244L149.504-44.072Q149.877-43.7752 150.207-43.5966Q150.537-43.4181 151.028-43.4181Q151.913-43.4181 152.475-43.9365Q153.037-44.455 153.037-45.2347Q153.037-46.2502 152.032-47.0818L90.1817-99.2401Q87.5786-101.496 84.7435-101.496Q81.9084-101.496 79.2206-99.2401L17.0486-47.0818Q16.5077-46.6309 16.2861-46.2128Q16.0645-45.7947 16.0645-45.24ZM128.41-64.7736L137.984-56.6582L137.984-85.3592Q137.984-86.4769 137.29-87.1468Q136.596-87.8166 135.514-87.8166L130.93-87.8166Q129.826-87.8166 129.118-87.1468Q128.41-86.4769 128.41-85.3592Z"/>
  </g>
  <g id="Ultralight-L" transform="matrix(1 0 0 1 476.647 1556)">
   <path d="M66.0492 23.1461L100.076 23.1461L100.076-25.4204Q100.076-26.9264 99.173-27.8294Q98.2704-28.7323 96.7644-28.7323L69.3642-28.7323Q67.8581-28.7323 66.9537-27.8294Q66.0492-26.9264 66.0492-25.4204ZM41.2544 24.2973L125.266 24.2973Q130.485 24.2973 133.138 21.6026Q135.79 18.9079 135.79 13.7405L135.79-55.1971L133.232-57.4753L133.232 13.2759Q133.232 17.7315 131.23 19.7357Q129.227 21.74 124.772 21.74L41.7442 21.74Q37.2917 21.74 35.2894 19.7357Q33.287 17.7315 33.287 13.2759L33.287-57.2906L30.7297-55.1971L30.7297 13.7405Q30.7297 18.9529 33.3824 21.6251Q36.0352 24.2973 41.2544 24.2973ZM16.0645-45.4041Q16.0645-44.9249 16.3998-44.6072Q16.7351-44.2894 17.2974-44.2894Q17.6483-44.2894 17.8024-44.3707Q17.9565-44.4519 18.1961-44.6365L80.1788-96.6438Q81.62-97.8928 83.0692-98.0324Q84.5184-98.172 86.2808-96.6438L147.935-44.6365Q148.175-44.4519 148.331-44.3707Q148.486-44.2894 148.792-44.2894Q149.38-44.2894 149.722-44.6388Q150.063-44.9883 150.063-45.4391Q150.063-46.096 149.263-46.7438L88.2439-98.2353Q85.8353-100.337 83.2771-100.337Q80.719-100.337 78.2158-98.2353L16.8236-46.7438Q16.3948-46.3745 16.2296-46.1052Q16.0645-45.8359 16.0645-45.4041ZM127.61-62.9585L135.79-56.0226L135.79-84.6214Q135.79-85.5232 135.214-86.0752Q134.637-86.6272 133.781-86.6272L129.668-86.6272Q128.77-86.6272 128.19-86.0752Q127.61-85.5232 127.61-84.6214Z"/>
  </g>
  <g id="Black-M" transform="matrix(1 0 0 1 2855.4 1126)">
   <path d="M64.1113 4.6875L91.8457 4.6875L91.8457-29.2969Q91.8457-31.1035 90.7715-32.2021Q89.6973-33.3008 87.8906-33.3008L68.1641-33.3008Q66.3574-33.3008 65.2344-32.2021Q64.1113-31.1035 64.1113-29.2969ZM44.9219 17.0898L111.035 17.0898Q118.115 17.0898 122.144 13.1592Q126.172 9.22852 126.172 2.58789L126.172-52.1973L108.838-64.1602L108.838-4.54102Q108.838-2.49023 107.715-1.36719Q106.592-0.244141 104.59-0.244141L51.3672-0.244141Q49.3652-0.244141 48.2422-1.36719Q47.1191-2.49023 47.1191-4.54102L47.1191-64.1602L29.7852-52.1973L29.7852 2.58789Q29.7852 9.22852 33.8135 13.1592Q37.8418 17.0898 44.9219 17.0898ZM12.4512-41.6016Q12.4512-37.9395 14.7949-35.6934Q17.1387-33.4473 21.0449-33.4473Q22.7051-33.4473 24.4141-34.1553Q26.123-34.8633 27.5879-36.1328L74.3652-75.3418Q76.1719-76.8555 78.0518-76.8555Q79.9316-76.8555 81.7383-75.3418L128.369-36.1328Q129.883-34.8633 131.592-34.1553Q133.301-33.4473 134.961-33.4473Q138.818-33.4473 141.187-35.6689Q143.555-37.8906 143.555-41.6016Q143.555-45.6543 140.039-48.584L89.2578-91.2598Q84.2285-95.459 78.0518-95.459Q71.875-95.459 66.8457-91.2598L15.9668-48.5352Q12.4512-45.6055 12.4512-41.6016ZM105.371-72.6562L126.172-55.3223L126.172-83.4961Q126.172-85.3027 125.073-86.4014Q123.975-87.5 122.168-87.5L109.424-87.5Q107.568-87.5 106.47-86.4014Q105.371-85.3027 105.371-83.4961Z"/>
  </g>
  <g id="Heavy-M" transform="matrix(1 0 0 1 2560.4 1126)">
   <path d="M62.3482 5.2063L90.1863 5.2063L90.1863-29.1473Q90.1863-30.9189 89.1235-32.0004Q88.0608-33.0818 86.2885-33.0818L66.3315-33.0818Q64.5477-33.0818 63.448-32.0004Q62.3482-30.9189 62.3482-29.1473ZM43.1816 15.8684L109.283 15.8684Q115.926 15.8684 119.683 12.1971Q123.441 8.52585 123.441 2.24228L123.441-52.3468L108.342-62.7541L108.342-3.67661Q108.342-1.54495 107.196-0.387573Q106.05 0.769806 103.967 0.769806L48.4978 0.769806Q46.4149 0.769806 45.2629-0.387573Q44.1109-1.54495 44.1109-3.67661L44.1109-62.7426L29.0131-52.3468L29.0131 2.24228Q29.0131 8.52585 32.7763 12.1971Q36.5395 15.8684 43.1816 15.8684ZM12.4512-41.7976Q12.4512-38.6421 14.5069-36.644Q16.5627-34.6458 20.0081-34.6458Q21.5179-34.6458 23.0251-35.302Q24.5323-35.9581 25.8362-37.0667L73.1094-76.7014Q74.6849-78.0312 76.3344-78.0312Q77.9839-78.0312 79.5601-76.7014L126.721-37.0667Q128.05-35.9581 129.558-35.302Q131.065-34.6458 132.575-34.6458Q135.926-34.6458 138.023-36.5795Q140.121-38.5132 140.121-41.7625Q140.121-45.343 137.077-47.8813L86.2846-90.5685Q81.797-94.3184 76.3348-94.3184Q70.8725-94.3184 66.3849-90.5685L15.506-47.8439Q12.4512-45.3056 12.4512-41.7976ZM104.656-70.7199L123.441-55.0339L123.441-81.8825Q123.441-83.6433 122.377-84.7073Q121.313-85.7712 119.552-85.7712L108.582-85.7712Q106.796-85.7712 105.726-84.7073Q104.656-83.6433 104.656-81.8825Z"/>
  </g>
  <g id="Bold-M" transform="matrix(1 0 0 1 2265.61 1126)">
   <path d="M60.376 5.78613L88.3301 5.78613L88.3301-28.9795Q88.3301-30.7129 87.2803-31.7749Q86.2305-32.8369 84.4971-32.8369L64.2822-32.8369Q62.5244-32.8369 61.4502-31.7749Q60.376-30.7129 60.376-28.9795ZM41.2354 14.502L107.324 14.502Q113.477 14.502 116.931 11.1206Q120.386 7.73926 120.386 1.85547L120.386-52.5146L107.788-61.1816L107.788-2.70996Q107.788-0.488281 106.616 0.708008Q105.444 1.9043 103.271 1.9043L45.2881 1.9043Q43.1152 1.9043 41.9312 0.708008Q40.7471-0.488281 40.7471-2.70996L40.7471-61.1572L28.1494-52.5146L28.1494 1.85547Q28.1494 7.73926 31.6162 11.1206Q35.083 14.502 41.2354 14.502ZM12.4512-42.0166Q12.4512-39.4287 14.1846-37.7075Q15.918-35.9863 18.8477-35.9863Q20.1904-35.9863 21.4722-36.5845Q22.7539-37.1826 23.877-38.1104L71.7041-78.2227Q73.0225-79.3457 74.4141-79.3457Q75.8057-79.3457 77.124-78.2227L124.878-38.1104Q126.001-37.1826 127.283-36.5845Q128.564-35.9863 129.907-35.9863Q132.69-35.9863 134.485-37.5977Q136.279-39.209 136.279-41.9434Q136.279-44.9951 133.765-47.0947L82.959-89.7949Q79.0771-93.042 74.4141-93.042Q69.751-93.042 65.8691-89.7949L14.9902-47.0703Q12.4512-44.9707 12.4512-42.0166ZM103.857-68.5547L120.386-54.7119L120.386-80.0781Q120.386-81.7871 119.36-82.8125Q118.335-83.8379 116.626-83.8379L107.642-83.8379Q105.933-83.8379 104.895-82.8125Q103.857-81.7871 103.857-80.0781Z"/>
  </g>
  <g id="Semibold-M" transform="matrix(1 0 0 1 1970.23 1126)">
   <path d="M59.0164 6.18591L87.0506 6.18591L87.0506-28.8643Q87.0506-30.571 86.0096-31.6196Q84.9686-32.6683 83.2619-32.6683L62.8693-32.6683Q61.129-32.6683 60.0727-31.6196Q59.0164-30.571 59.0164-28.8643ZM39.8933 13.5597L105.973 13.5597Q111.788 13.5597 115.034 10.3783Q118.279 7.19681 118.279 1.5892L118.279-52.6299L107.406-60.0975L107.406-2.04315Q107.406 0.240326 106.216 1.46332Q105.027 2.68631 102.792 2.68631L43.0756 2.68631Q40.8401 2.68631 39.6339 1.46332Q38.4277 0.240326 38.4277-2.04315L38.4277-60.0639L27.5543-52.6299L27.5543 1.5892Q27.5543 7.19681 30.8167 10.3783Q34.079 13.5597 39.8933 13.5597ZM12.4512-42.1677Q12.4512-39.9712 13.9626-38.4407Q15.4739-36.9102 18.0481-36.9102Q19.2749-36.9102 20.4014-37.4687Q21.5279-38.0272 22.5258-38.8306L70.7352-79.2717Q71.8758-80.2521 73.0896-80.2521Q74.3034-80.2521 75.444-79.2717L123.607-38.8306Q124.588-38.0272 125.714-37.4687Q126.84-36.9102 128.068-36.9102Q130.46-36.9102 132.045-38.2996Q133.631-39.6889 133.631-42.0677Q133.631-44.7548 131.48-46.5523L80.6664-89.2616Q77.2018-92.1623 73.09-92.1623Q68.9781-92.1623 65.5136-89.2616L14.6347-46.537Q12.4512-44.7395 12.4512-42.1677ZM103.307-67.0616L118.279-54.4899L118.279-78.8338Q118.279-80.5077 117.281-81.5063Q116.282-82.505 114.609-82.505L106.993-82.505Q105.338-82.505 104.322-81.5063Q103.307-80.5077 103.307-78.8338Z"/>
  </g>
  <g id="Medium-M" transform="matrix(1 0 0 1 1674.52 1126)">
   <path d="M57.9849 6.48956L86.0802 6.48956L86.0802-28.7766Q86.0802-30.4626 85.046-31.5014Q84.0118-32.5401 82.325-32.5401L61.7981-32.5401Q60.0716-32.5401 59.0282-31.5014Q57.9849-30.4626 57.9849-28.7766ZM38.8756 12.8456L104.949 12.8456Q110.508 12.8456 113.595 9.81598Q116.682 6.78635 116.682 1.38702L116.682-52.7176L107.116-59.2751L107.116-1.53809Q107.116 0.792694 105.913 2.0359Q104.71 3.27911 102.428 3.27911L41.3971 3.27911Q39.1151 3.27911 37.8922 2.0359Q36.6692 0.792694 36.6692-1.53809L36.6692-59.2354L27.1027-52.7176L27.1027 1.38702Q27.1027 6.78635 30.2101 9.81598Q33.3176 12.8456 38.8756 12.8456ZM12.4512-42.2821Q12.4512-40.3816 13.7939-38.9965Q15.1367-37.6114 17.4416-37.6114Q18.5814-37.6114 19.5896-38.1393Q20.5978-38.6673 21.5019-39.3761L70.0012-80.0667Q71.0068-80.9395 72.086-80.9395Q73.1651-80.9395 74.1707-80.0667L122.643-39.3761Q123.517-38.6673 124.525-38.1393Q125.533-37.6114 126.673-37.6114Q128.768-37.6114 130.196-38.8321Q131.623-40.0528 131.623-42.1623Q131.623-44.5732 129.749-46.1418L78.9276-88.8573Q75.7805-91.4948 72.086-91.4948Q68.3914-91.4948 65.2443-88.8573L14.3654-46.1327Q12.4512-44.5648 12.4512-42.2821ZM102.888-65.9294L116.682-54.3213L116.682-77.8908Q116.682-79.5372 115.704-80.5157Q114.725-81.4941 113.079-81.4941L106.501-81.4941Q104.886-81.4941 103.887-80.5157Q102.888-79.5372 102.888-77.8908Z"/>
  </g>
  <g id="Regular-M" transform="matrix(1 0 0 1 1379.12 1126)">
   <path d="M56.6406 6.88477L84.8145 6.88477L84.8145-28.6621Q84.8145-30.3223 83.7891-31.3477Q82.7637-32.373 81.1035-32.373L60.4004-32.373Q58.6914-32.373 57.666-31.3477Q56.6406-30.3223 56.6406-28.6621ZM37.5488 11.9141L103.613 11.9141Q108.838 11.9141 111.719 9.08203Q114.6 6.25 114.6 1.12305L114.6-52.832L106.738-58.2031L106.738-0.878906Q106.738 1.51367 105.518 2.7832Q104.297 4.05273 101.953 4.05273L39.209 4.05273Q36.8652 4.05273 35.6201 2.7832Q34.375 1.51367 34.375-0.878906L34.375-58.1543L26.5137-52.832L26.5137 1.12305Q26.5137 6.25 29.4189 9.08203Q32.3242 11.9141 37.5488 11.9141ZM12.4512-42.4316Q12.4512-40.918 13.5742-39.7217Q14.6973-38.5254 16.6504-38.5254Q17.6758-38.5254 18.5303-39.0137Q19.3848-39.502 20.166-40.0879L69.043-81.1035Q69.873-81.8359 70.7764-81.8359Q71.6797-81.8359 72.5098-81.1035L121.387-40.0879Q122.119-39.502 122.974-39.0137Q123.828-38.5254 124.854-38.5254Q126.562-38.5254 127.783-39.5264Q129.004-40.5273 129.004-42.2852Q129.004-44.3359 127.49-45.6055L76.6602-88.3301Q73.9258-90.625 70.7764-90.625Q67.627-90.625 64.8926-88.3301L14.0137-45.6055Q12.4512-44.3359 12.4512-42.4316ZM102.344-64.4531L114.6-54.1016L114.6-76.6602Q114.6-78.2715 113.647-79.2236Q112.695-80.1758 111.084-80.1758L105.859-80.1758Q104.297-80.1758 103.32-79.2236Q102.344-78.2715 102.344-76.6602Z"/>
  </g>
  <g id="Light-M" transform="matrix(1 0 0 1 1084.37 1126)">
   <path d="M54.9454 7.8537L82.5745 7.8537L82.5745-28.344Q82.5745-29.8531 81.6475-30.78Q80.7205-31.707 79.2114-31.707L58.342-31.707Q56.7993-31.707 55.8723-30.78Q54.9454-29.8531 54.9454-28.344ZM35.8231 11.5959L101.585 11.5959Q106.446 11.5959 109.07 8.99849Q111.694 6.40106 111.694 1.60751L111.694-52.1812L105.663-56.4171L105.663 0.119781Q105.663 2.84576 104.337 4.20609Q103.011 5.56641 100.318 5.56641L37.0895 5.56641Q34.3979 5.56641 33.0544 4.20609Q31.7108 2.84576 31.7108 0.119781L31.7108-56.353L25.6813-52.1812L25.6813 1.60751Q25.6813 6.41632 28.3215 9.00612Q30.9616 11.5959 35.8231 11.5959ZM12.4512-42.6437Q12.4512-41.478 13.3095-40.5769Q14.1678-39.6759 15.6517-39.6759Q16.4345-39.6759 17.062-40.0356Q17.6895-40.3954 18.2892-40.8447L66.909-81.6483Q67.8146-82.4417 68.7935-82.4718Q69.7723-82.502 70.7542-81.6483L119.298-40.8447Q119.864-40.3954 120.491-40.0356Q121.119-39.6759 121.902-39.6759Q123.217-39.6759 124.143-40.4499Q125.069-41.2239 125.069-42.5423Q125.069-44.1238 123.827-45.1668L74.0868-87.0132Q71.64-89.0961 68.8465-89.0961Q66.053-89.0961 63.5757-87.0132L13.7108-45.1668Q12.4512-44.1238 12.4512-42.6437ZM101.284-62.0461L111.694-53.2539L111.694-75.676Q111.694-77.0149 110.9-77.8084Q110.107-78.6018 108.783-78.6018L104.195-78.6018Q102.905-78.6018 102.094-77.8084Q101.284-77.0149 101.284-75.676Z"/>
  </g>
  <g id="Thin-M" transform="matrix(1 0 0 1 790.265 1126)">
   <path d="M52.7031 9.13467L79.6112 9.13467L79.6112-27.9236Q79.6112-29.2328 78.8143-30.0297Q78.0174-30.8266 76.709-30.8266L55.619-30.8266Q54.2969-30.8266 53.5-30.0297Q52.7031-29.2328 52.7031-27.9236ZM33.5411 11.1755L98.9029 11.1755Q103.284 11.1755 105.567 8.88863Q107.85 6.60172 107.85 2.24838L107.85-51.3206L104.242-54.055L104.242 1.44119Q104.242 4.60739 102.775 6.08788Q101.308 7.56836 98.1567 7.56836L34.2873 7.56836Q31.1348 7.56836 29.6612 6.08788Q28.1876 4.60739 28.1876 1.44119L28.1876-53.9711L24.5804-51.3206L24.5804 2.24838Q24.5804 6.63681 26.8703 8.90617Q29.1603 11.1755 33.5411 11.1755ZM12.4512-42.9237Q12.4512-42.2188 12.9589-41.708Q13.4666-41.1972 14.3303-41.1972Q14.7934-41.1972 15.1203-41.3868Q15.4472-41.5764 15.8066-41.8457L64.0862-82.3692Q65.0917-83.242 66.1709-83.3122Q67.2501-83.3824 68.4319-82.3692L116.535-41.8457Q116.881-41.5764 117.208-41.3868Q117.535-41.1972 117.999-41.1972Q118.793-41.1972 119.329-41.671Q119.864-42.1448 119.864-42.8825Q119.864-43.8438 118.983-44.5862L70.6841-85.2715Q68.6172-87.0743 66.2941-87.0743Q63.9709-87.0743 61.834-85.2715L13.3102-44.5862Q12.4512-43.8438 12.4512-42.9237ZM99.8833-58.8638L107.85-52.1332L107.85-74.3752Q107.85-75.354 107.267-75.9369Q106.684-76.5198 105.74-76.5198L101.992-76.5198Q101.063-76.5198 100.473-75.9369Q99.8833-75.354 99.8833-74.3752Z"/>
  </g>
  <g id="Ultralight-M" transform="matrix(1 0 0 1 494.887 1126)">
   <path d="M51.5549 9.7908L78.0937 9.7908L78.0937-27.7084Q78.0937-28.9146 77.3636-29.6448Q76.6335-30.3749 75.4272-30.3749L54.2244-30.3749Q53.0151-30.3749 52.285-29.6448Q51.5549-28.9146 51.5549-27.7084ZM32.3723 10.9604L97.5281 10.9604Q101.663 10.9604 103.772 8.83217Q105.881 6.70395 105.881 2.57645L105.881-50.8797L103.514-52.845L103.514 2.11792Q103.514 5.50995 101.976 7.05185Q100.437 8.59375 97.049 8.59375L32.8514 8.59375Q29.4632 8.59375 27.9232 7.05185Q26.3832 5.50995 26.3832 2.11792L26.3832-52.7504L24.0158-50.8797L24.0158 2.57645Q24.0158 6.74973 26.1265 8.85506Q28.2372 10.9604 32.3723 10.9604ZM12.4512-43.0672Q12.4512-42.598 12.7796-42.2871Q13.1081-41.9762 13.6536-41.9762Q13.9519-41.9762 14.1254-42.0788Q14.299-42.1814 14.5355-42.3584L62.6404-82.7385Q63.6971-83.6525 64.8277-83.7433Q65.9584-83.8341 67.2424-82.7385L115.12-42.3584Q115.353-42.1814 115.527-42.0788Q115.7-41.9762 115.999-41.9762Q116.527-41.9762 116.862-42.2962Q117.197-42.6163 117.197-43.0573Q117.197-43.7004 116.501-44.2886L68.9407-84.3796Q67.0692-86.039 64.9868-86.039Q62.9044-86.039 60.9421-84.3796L13.1058-44.2886Q12.4512-43.7004 12.4512-43.0672ZM99.1653-57.2327L105.881-51.5587L105.881-73.7083Q105.881-74.5026 105.405-74.9779Q104.93-75.4532 104.182-75.4532L100.864-75.4532Q100.119-75.4532 99.6422-74.9779Q99.1653-74.5026 99.1653-73.7083Z"/>
  </g>
  <g id="Black-S" transform="matrix(1 0 0 1 2871.88 696)">
   <path d="M50.6836-4.05273L72.3633-4.05273L72.3633-30.6152Q72.3633-33.7402 69.2383-33.7402L53.8574-33.7402Q52.4414-33.7402 51.5625-32.8857Q50.6836-32.0312 50.6836-30.6152ZM35.6445 6.10352L87.4023 6.10352Q93.0664 6.10352 96.2891 2.9541Q99.5117-0.195312 99.5117-5.46875L99.5117-48.4375L85.3516-58.2031L85.3516-11.377Q85.3516-8.05664 82.0312-8.05664L41.0156-8.05664Q37.6953-8.05664 37.6953-11.377L37.6953-58.2031L23.5352-48.4375L23.5352-5.46875Q23.5352-0.195312 26.7578 2.9541Q29.9805 6.10352 35.6445 6.10352ZM9.76562-40.1855Q9.76562-37.207 11.6943-35.376Q13.623-33.5449 16.748-33.5449Q18.0664-33.5449 19.458-34.1064Q20.8496-34.668 22.0703-35.6934L58.5449-66.2598Q61.5234-68.7988 64.5996-66.2598L100.977-35.6934Q102.197-34.668 103.589-34.1064Q104.98-33.5449 106.299-33.5449Q109.473-33.5449 111.377-35.376Q113.281-37.207 113.281-40.1855Q113.281-43.5059 110.4-45.8984L70.7031-79.248Q66.6016-82.7148 61.5723-82.7148Q56.543-82.7148 52.4414-79.248L12.6465-45.8496Q9.76562-43.457 9.76562-40.1855ZM82.7148-64.9902L99.5117-51.0254L99.5117-73.4863Q99.5117-76.6113 96.3867-76.6113L85.8887-76.6113Q84.4727-76.6113 83.5938-75.7568Q82.7148-74.9023 82.7148-73.4863Z"/>
  </g>
  <g id="Heavy-S" transform="matrix(1 0 0 1 2576.38 696)">
   <path d="M49.3927-3.73001L71.2227-3.73001L71.2227-30.5229Q71.2227-33.6365 68.1091-33.6365L52.5436-33.6365Q51.1391-33.6365 50.2659-32.7877Q49.3927-31.9389 49.3927-30.5229ZM34.3765 5.10101L86.1694 5.10101Q91.4993 5.10101 94.5259 2.14157Q97.5525-0.817871 97.5525-5.82581L97.5525-48.6565L85.0746-57.2235L85.0746-10.7658Q85.0746-7.37686 81.7085-7.37686L38.826-7.37686Q35.4713-7.37686 35.4713-10.7658L35.4713-57.2235L22.982-48.6565L22.982-5.82581Q22.982-0.806427 26.0086 2.14729Q29.0352 5.10101 34.3765 5.10101ZM9.76562-40.3236Q9.76562-37.7258 11.4754-36.0733Q13.1851-34.4208 15.9988-34.4208Q17.2249-34.4208 18.4669-34.9533Q19.709-35.4858 20.8023-36.396L57.7385-67.366Q60.3134-69.5595 62.9631-67.366L99.8238-36.396Q100.918-35.4858 102.166-34.9533Q103.413-34.4208 104.639-34.4208Q107.421-34.4208 109.135-36.0271Q110.85-37.6335 110.85-40.2893Q110.85-43.264 108.337-45.3568L68.4906-78.833Q64.8155-81.9313 60.3508-81.9313Q55.8861-81.9313 52.2224-78.833L12.2894-45.3194Q9.76562-43.2266 9.76562-40.3236ZM82.2426-63.6421L97.5525-50.8759L97.5525-72.2305Q97.5525-75.3319 94.4504-75.3319L85.3928-75.3319Q83.9767-75.3319 83.1097-74.4831Q82.2426-73.6343 82.2426-72.2305Z"/>
  </g>
  <g id="Bold-S" transform="matrix(1 0 0 1 2281.03 696)">
   <path d="M47.9492-3.36914L69.9463-3.36914L69.9463-30.4199Q69.9463-33.5205 66.8457-33.5205L51.0742-33.5205Q49.6826-33.5205 48.8159-32.6782Q47.9492-31.8359 47.9492-30.4199ZM32.959 3.97949L84.79 3.97949Q89.7461 3.97949 92.5537 1.23291Q95.3613-1.51367 95.3613-6.22559L95.3613-48.9014L84.7656-56.1279L84.7656-10.083Q84.7656-6.61621 81.3477-6.61621L36.377-6.61621Q32.9834-6.61621 32.9834-10.083L32.9834-56.1279L22.3633-48.9014L22.3633-6.22559Q22.3633-1.48926 25.1709 1.24512Q27.9785 3.97949 32.959 3.97949ZM9.76562-40.4785Q9.76562-38.3057 11.2305-36.853Q12.6953-35.4004 15.1611-35.4004Q16.2842-35.4004 17.3584-35.9009Q18.4326-36.4014 19.3848-37.1826L56.8359-68.6035Q58.96-70.4102 61.1328-68.6035L98.5352-37.1826Q99.4873-36.4014 100.574-35.9009Q101.66-35.4004 102.783-35.4004Q105.127-35.4004 106.628-36.7554Q108.13-38.1104 108.13-40.4053Q108.13-42.9932 106.03-44.751L66.0156-78.3691Q62.8174-81.0547 58.9844-81.0547Q55.1514-81.0547 51.9775-78.3691L11.8896-44.7266Q9.76562-42.9688 9.76562-40.4785ZM81.7139-62.1338L95.3613-50.708L95.3613-70.8252Q95.3613-73.9014 92.2852-73.9014L84.8389-73.9014Q83.4229-73.9014 82.5684-73.0591Q81.7139-72.2168 81.7139-70.8252Z"/>
  </g>
  <g id="Semibold-S" transform="matrix(1 0 0 1 1985.26 696)">
   <path d="M46.9536-3.12042L69.0666-3.12042L69.0666-30.349Q69.0666-33.4404 65.9744-33.4404L50.061-33.4404Q48.6786-33.4404 47.8161-32.6027Q46.9536-31.765 46.9536-30.349ZM31.9817 3.20663L83.8394 3.20663Q88.5376 3.20663 91.1942 0.606537Q93.8507-1.99356 93.8507-6.50101L93.8507-49.07L84.552-55.3726L84.552-9.61227Q84.552-6.09207 81.0989-6.09207L34.6886-6.09207Q31.2683-6.09207 31.2683-9.61227L31.2683-55.3726L21.9368-49.07L21.9368-6.50101Q21.9368-1.95999 24.5934 0.623322Q27.2499 3.20663 31.9817 3.20663ZM9.76562-40.5853Q9.76562-38.7054 11.0615-37.3905Q12.3573-36.0756 14.5836-36.0756Q15.6357-36.0756 16.5943-36.554Q17.5529-37.0323 18.4074-37.7251L56.2141-69.4565Q58.0269-70.9969 59.8709-69.4565L97.6463-37.7251Q98.5008-37.0323 99.4762-36.554Q100.452-36.0756 101.504-36.0756Q103.545-36.0756 104.9-37.2574Q106.255-38.4392 106.255-40.4854Q106.255-42.8062 104.44-44.3336L64.3097-78.0495Q61.4395-80.4504 58.0421-80.4504Q54.6448-80.4504 51.8089-78.0495L11.6142-44.3176Q9.76562-42.791 9.76562-40.5853ZM81.3492-61.0939L93.8507-50.5928L93.8507-69.8563Q93.8507-72.9149 90.7921-72.9149L84.4566-72.9149Q83.0406-72.9149 82.1949-72.0772Q81.3492-71.2395 81.3492-69.8563Z"/>
  </g>
  <g id="Medium-S" transform="matrix(1 0 0 1 1689.26 696)">
   <path d="M46.199-2.93198L68.399-2.93198L68.399-30.2948Q68.399-33.3801 65.3145-33.3801L49.2928-33.3801Q47.9172-33.3801 47.0581-32.5455Q46.199-31.7108 46.199-30.2948ZM31.2401 2.61993L83.1184 2.61993Q87.6213 2.61993 90.163 0.131226Q92.7048-2.35748 92.7048-6.71005L92.7048-49.1982L84.3903-54.7997L84.3903-9.25522Q84.3903-5.69458 80.9105-5.69458L33.4084-5.69458Q29.9675-5.69458 29.9675-9.25522L29.9675-54.7997L21.6133-49.1982L21.6133-6.71005Q21.6133-2.31705 24.1554 0.151443Q26.6975 2.61993 31.2401 2.61993ZM9.76562-40.6662Q9.76562-39.0091 10.9337-37.7987Q12.1017-36.5883 14.1457-36.5883Q15.1436-36.5883 16.0145-37.0495Q16.8854-37.5107 17.6659-38.1355L55.7419-70.1035Q57.3196-71.4417 58.9142-70.1035L96.9727-38.1355Q97.7531-37.5107 98.6443-37.0495Q99.5354-36.5883 100.533-36.5883Q102.345-36.5883 103.589-37.6385Q104.833-38.6887 104.833-40.5457Q104.833-42.6651 103.233-44.0163L63.0157-77.8069Q60.3958-79.9919 57.3284-79.9919Q54.261-79.9919 51.6808-77.8069L11.4052-44.0079Q9.76562-42.6559 9.76562-40.6662ZM81.073-60.3058L92.7048-50.5051L92.7048-69.1223Q92.7048-72.1672 89.6599-72.1672L84.1667-72.1672Q82.7507-72.1672 81.9118-71.3326Q81.073-70.4979 81.073-69.1223Z"/>
  </g>
  <g id="Regular-S" transform="matrix(1 0 0 1 1393.47 696)">
   <path d="M45.2148-2.68555L67.5293-2.68555L67.5293-30.2246Q67.5293-33.3008 64.4531-33.3008L48.291-33.3008Q46.9238-33.3008 46.0693-32.4707Q45.2148-31.6406 45.2148-30.2246ZM30.2734 1.85547L82.1777 1.85547Q86.4258 1.85547 88.8184-0.488281Q91.2109-2.83203 91.2109-6.98242L91.2109-49.3652L84.1797-54.0527L84.1797-8.78906Q84.1797-5.17578 80.6641-5.17578L31.7383-5.17578Q28.2715-5.17578 28.2715-8.78906L28.2715-54.0527L21.1914-49.3652L21.1914-6.98242Q21.1914-2.7832 23.584-0.463867Q25.9766 1.85547 30.2734 1.85547ZM9.76562-40.7715Q9.76562-39.4043 10.7666-38.3301Q11.7676-37.2559 13.5742-37.2559Q14.502-37.2559 15.2588-37.6953Q16.0156-38.1348 16.6992-38.6719L55.127-70.9473Q56.3965-72.0215 57.666-70.9473L96.0938-38.6719Q96.7773-38.1348 97.5586-37.6953Q98.3398-37.2559 99.2676-37.2559Q100.781-37.2559 101.88-38.1348Q102.979-39.0137 102.979-40.625Q102.979-42.4805 101.66-43.6035L61.3281-77.4902Q59.0332-79.3945 56.3965-79.3945Q53.7598-79.3945 51.5137-77.4902L11.1328-43.6035Q9.76562-42.4805 9.76562-40.7715ZM80.7129-59.2773L91.2109-50.3906L91.2109-68.1641Q91.2109-71.1914 88.1836-71.1914L83.7891-71.1914Q82.373-71.1914 81.543-70.3613Q80.7129-69.5312 80.7129-68.1641Z"/>
  </g>
  <g id="Light-S" transform="matrix(1 0 0 1 1098.5 696)">
   <path d="M43.7164-1.83792L65.5464-1.83792L65.5464-29.9522Q65.5464-32.7103 62.7884-32.7103L46.4745-32.7103Q45.2438-32.7103 44.4801-31.9633Q43.7164-31.2164 43.7164-29.9522ZM28.7445 1.5831L80.3764 1.5831Q84.3216 1.5831 86.4796-0.556183Q88.6375-2.69547 88.6375-6.54373L88.6375-48.7747L83.226-52.494L83.226-7.91092Q83.226-3.84369 79.2259-3.84369L29.8615-3.84369Q25.9102-3.84369 25.9102-7.91092L25.9102-52.4635L20.4498-48.7747L20.4498-6.54373Q20.4498-2.64664 22.6154-0.531769Q24.781 1.5831 28.7445 1.5831ZM9.76562-40.9531Q9.76562-39.904 10.532-39.0869Q11.2984-38.2698 12.6808-38.2698Q13.3972-38.2698 13.9572-38.596Q14.5172-38.9221 15.049-39.3379L53.2349-71.4165Q54.6707-72.6418 56.1218-71.4165L94.2474-39.3379Q94.7792-38.9221 95.356-38.596Q95.9328-38.2698 96.6492-38.2698Q97.8294-38.2698 98.6633-38.9519Q99.4972-39.6339 99.4972-40.8524Q99.4972-42.2836 98.4207-43.1946L59.0576-76.3092Q57.0045-78.0319 54.686-78.0319Q52.3674-78.0319 50.3326-76.3092L10.8757-43.1946Q9.76562-42.2836 9.76562-40.9531ZM79.7745-57.1579L88.6375-49.649L88.6375-67.3012Q88.6375-69.799 86.1404-69.799L82.3059-69.799Q81.147-69.799 80.4607-69.1128Q79.7745-68.4265 79.7745-67.3012Z"/>
  </g>
  <g id="Thin-S" transform="matrix(1 0 0 1 804.093 696)">
   <path d="M41.7343-0.717163L62.9242-0.717163L62.9242-29.5921Q62.9242-31.9298 60.5858-31.9298L44.0727-31.9298Q43.0214-31.9298 42.3779-31.2931Q41.7343-30.6564 41.7343-29.5921ZM26.7227 1.22299L77.9945 1.22299Q81.5392 1.22299 83.387-0.64621Q85.2348-2.51541 85.2348-5.96313L85.2348-47.9942L81.9649-50.4318L81.9649-6.74973Q81.9649-2.08206 77.3247-2.08206L27.3788-2.08206Q22.7875-2.08206 22.7875-6.74973L22.7875-50.3616L19.4687-47.9942L19.4687-5.96313Q19.4687-2.46658 21.3341-0.621796Q23.1995 1.22299 26.7227 1.22299ZM9.76562-41.1934Q9.76562-40.5647 10.2219-40.0879Q10.6781-39.6111 11.4998-39.6111Q11.9354-39.6111 12.2353-39.7869Q12.5351-39.9628 12.867-40.2184L50.7324-72.0367Q52.3888-73.4627 54.0802-72.0367L91.8045-40.2184Q92.1371-39.9628 92.4438-39.7869Q92.7505-39.6111 93.1854-39.6111Q93.9262-39.6111 94.4096-40.033Q94.8929-40.4549 94.8929-41.1522Q94.8929-42.0235 94.1368-42.6544L56.0547-74.7482Q54.3228-76.2306 52.4242-76.2306Q50.5257-76.2306 48.7717-74.7482L10.5354-42.6544Q9.76562-42.0235 9.76562-41.1934ZM78.5332-54.3556L85.2348-48.6679L85.2348-66.1606Q85.2348-67.9573 83.4373-67.9573L80.3436-67.9573Q79.5258-67.9573 79.0295-67.461Q78.5332-66.9647 78.5332-66.1606Z"/>
  </g>
  <g id="Ultralight-S" transform="matrix(1 0 0 1 508.561 696)">
   <path d="M40.7196-0.14267L61.5807-0.14267L61.5807-29.4075Q61.5807-31.53 59.4582-31.53L42.8421-31.53Q41.8831-31.53 41.3013-30.9494Q40.7196-30.3688 40.7196-29.4075ZM25.6874 1.03836L76.7738 1.03836Q80.114 1.03836 81.8027-0.692368Q83.4915-2.4231 83.4915-5.66559L83.4915-47.5945L81.3187-49.3752L81.3187-6.1554Q81.3187-1.1795 76.3504-1.1795L26.1078-1.1795Q21.1876-1.1795 21.1876-6.1554L21.1876-49.2844L18.9667-47.5945L18.9667-5.66559Q18.9667-2.37427 20.6779-0.667953Q22.3892 1.03836 25.6874 1.03836ZM9.76562-41.3162Q9.76562-40.9027 10.0628-40.6006Q10.36-40.2985 10.8948-40.2985Q11.187-40.2985 11.3537-40.3973Q11.5204-40.4961 11.7493-40.67L49.4507-72.3549Q51.2199-73.8831 53.0342-72.3549L90.554-40.67Q90.7829-40.4961 90.9512-40.3973Q91.1194-40.2985 91.4116-40.2985Q91.9266-40.2985 92.2306-40.5869Q92.5346-40.8752 92.5346-41.3063Q92.5346-41.89 91.9426-42.3775L54.5166-73.9479Q52.948-75.3075 51.265-75.3075Q49.5819-75.3075 47.9713-73.9479L10.3607-42.3775Q9.76562-41.89 9.76562-41.3162ZM77.8976-52.9198L83.4915-48.1659L83.4915-65.5754Q83.4915-67.0135 82.0534-67.0135L79.3388-67.0135Q78.6949-67.0135 78.2963-66.6149Q77.8976-66.2163 77.8976-65.5754Z"/>
  </g>
 </g>
</svg>
